/* XPM */
static char * image_name[] = {
"42 39 16 1",
" 	c None",
".	c #000000000000",
"X	c #71C6555528A2",
"o	c #79E7555530C2",
"O	c #EFBEF7DEFFFF",
"+	c #F7DEFBEE38E3",
"@	c #D75CAEBA71C6",
"#	c #104004100000",
"$	c #208104100000",
"%	c #D75CB2CA69A6",
"&	c #CF3CAEBA79E7",
"*	c #D75CAEBA8E38",
"=	c #104010402081",
"-	c #000000000820",
";	c #28A20C300820",
":	c #71C64D3430C2",
"         .X.      .XXXXX.                 ",
"         .XX...    .XXXXX.                ",
"         .XXXXX..  .XXXXXX.               ",
"         .XXXXXXX....XXXXXX.              ",
"          ..XXXXXXXX..XXXXXX.             ",
"            ...XXXXXXX.XXXXXX.            ",
"               ..XXXXX..XXXXXX.           ",
"                 .XXXXX..XXXXX.           ",
"                  ..XXXX.XXXXX.           ",
"                    .XXX..XXoX.           ",
"                    .XXXX.XXXX.           ",
"                     .XXXX.XXX.           ",
"                     .XXXX.XXX.           ",
"                     .XXXXXXXX.           ",
"                     .XXXXXXXXX.          ",
"                      .XXXXXXXXX.         ",
"                      .XXXXXXXXXX.        ",
"                      ++XXXXXXXXXX.       ",
"                     +++XXXXXXXXXXX.      ",
"  ..                ..++XXXXXXXXXXX..     ",
" ....               ..++XXXX@@@@@@@@@.    ",
" .......             +++XXX@@@@@@@@@@@.   ",
"  ...#@@.....        ++@@@@@@@@@@@@@@@@.  ",
"   ..$@@@@@@@.........@@@@@@@@%@@@@@@@@@. ",
"     .@@@@@@@@@@@@@@@@@@@@@@@@@@@@@@@@@@. ",
"     .@@@@@@@@@@@@@@@@@@@@@@@@@@@@@@@@@@. ",
"      ..@@@@@@@@@@@@@@@@..@@@@@@@@@@@@@@. ",
"        ......@@@@......@@@@@@@@@@@@@&@@. ",
"              ......@@@@@@@@@@@@@@@@@@@@. ",
"                  .@@@@@@@@@@@@@@@@@@@..  ",
"                   .*@@@@@@@@@@@@@@...    ",
"                    .#@@@@@@@@@@@...      ",
"                      =@@@@@@#...         ",
"                      -@@@@@.             ",
"                      -@@@XX              ",
"                      .@@@X.              ",
"                      .@@XX.              ",
"                     .@@XXXX..            ",
"                    ;@@@:XXXXX.           "}
