/* XPM */
static char *wily[] = {
/* width height num_colors chars_per_pixel */
"    48    48        3            1",
/* colors */
"  s mask c none"
". c #ffffff",
"# c #000000",
/* pixels */
"        #                                       " 
"         ##                                     " 
"         #.#                                    " 
"         #.##                                   " 
"          #.##                                  " 
"            #.#####                             " 
"  #        #.##.##.###                          " 
"  ##       #..####..##                          " 
"  #.##      #...#.##.##                         " 
"  #.###     #....##.#.#                         " 
"   #.#.#    ##...###.#.#                        " 
"   #..#.#    #.....######                       " 
"   #..#..##   ##....##.##                       " 
"   #...##.##   #....##.##                       " 
"    #...##.#    #....##.#                       " 
"     #...##.#   ###..#.#                        " 
"     #.....###   #####.##                       " 
"     #.......##   #.###.#                       " 
"      #......###  #####.#                       " 
"       #......###   ###.#                       " 
"        #.....###   #.###                       " 
"         ###...#.#  ##.####                     " 
"           ###..##  #.###..##                   " 
"             ##### ###.#.#..#                   " 
"                #.#.#.#.#.#.#                   " 
"                ###.##.##.#.#       ####        " 
"                ####.#.#...#.##  ###....#       " 
"                 #.####..#..#..# ##.....##      " 
"                  #.#.#.......#.##........#     " 
"                 ###.###....###......#....#     " 
"             ####..#.##.##..#........#....#     " 
"            #.......#.####.........##....#      " 
"            #.....#.##.###.....###.......#      " 
"           #...##..............#.........#      " 
"            ##...#......#.....#.........#       " 
"           #.##..#......................#       " 
"              ###.##.......###.........#        " 
"         #####.........##......########         " 
"       #######.......##......###                " 
"       ##.####.......#......##                  " 
"        #.#######...#.......#                   " 
"        ######   ###...#....#                   " 
"         ###      #................######       " 
"                   ###...........###....####    " 
"                   ####.....#..#########.#..### " 
"                    ##.......########.###.#..## " 
"             #######.....#....#..#.####.#..#..# " 
"            #..#..##....##.....#.####.######..# "
};
